<?xml version="1.0" encoding="UTF-8"?>
<svg id="Layer_1" data-name="Layer 1" xmlns="http://www.w3.org/2000/svg" xmlns:xlink="http://www.w3.org/1999/xlink" viewBox="0 0 1580.04 1048">
  <defs>
    <style>
      .cls-1 {
        clip-path: url(#clippath-4);
      }

      .cls-1, .cls-2, .cls-3, .cls-4, .cls-5, .cls-6, .cls-7, .cls-8, .cls-9, .cls-10, .cls-11, .cls-12, .cls-13, .cls-14, .cls-15, .cls-16, .cls-17 {
        fill: none;
      }

      .cls-2 {
        clip-path: url(#clippath-12);
      }

      .cls-2, .cls-5, .cls-12 {
        clip-rule: evenodd;
      }

      .cls-3 {
        clip-path: url(#clippath-2);
      }

      .cls-18 {
        fill: #fff;
      }

      .cls-4 {
        clip-path: url(#clippath-6);
      }

      .cls-19 {
        fill: #15bfe7;
      }

      .cls-5 {
        clip-path: url(#clippath-9);
      }

      .cls-6 {
        clip-path: url(#clippath-13);
      }

      .cls-7 {
        clip-path: url(#clippath-7);
      }

      .cls-8 {
        clip-path: url(#clippath-10);
      }

      .cls-9 {
        clip-path: url(#clippath-5);
      }

      .cls-10 {
        clip-path: url(#clippath-3);
      }

      .cls-11 {
        clip-path: url(#clippath-11);
      }

      .cls-14 {
        clip-path: url(#clippath);
      }

      .cls-15 {
        clip-path: url(#clippath-1);
      }

      .cls-16 {
        clip-path: url(#clippath-8);
      }

      .cls-17 {
        clip-path: url(#clippath-14);
      }
    </style>
    <clipPath id="clippath">
      <path class="cls-12" d="m1002.37,927.7c-4.86-29.46-32.81-58.71-70.89-58.96-41.74-.27-67.92,31.18-72.87,58.96h143.76Zm-144.19,26.77c1.06,6.94,3.2,13.04,6.11,18.85,11.03,22.03,28.6,36.01,52.76,40.62,22.17,4.23,42.36-1.4,60.26-15.15,1.24-.95,2.41-2.01,3.72-2.87,5.4-3.54,12.56-2.58,16.79,2.18,4.15,4.68,4.31,11.67.37,16.67-1.32,1.68-2.91,3.1-4.56,4.44-19.33,15.57-41.41,23.23-66.21,22.56-46.87-1.27-86.66-35.44-95.23-81.56-7.49-40.29,10.24-80.54,44.74-102.51,49.63-31.6,118.62-13.53,144.26,43.32,5.4,11.98,8.53,24.4,8.88,37.59.21,7.97-4.56,15.33-14.96,15.83-1.23.06-2.46.03-3.69.03-49.6,0-99.2,0-148.8,0h-4.42Zm0,0"/>
    </clipPath>
    <clipPath id="clippath-1">
      <path class="cls-12" d="m627.31,908.68c-12.73-27.5-48.13-46.95-83.25-37.66-38.59,10.2-57.75,46.12-54.84,77.23,46-13.18,91.93-26.34,138.1-39.57m-131.08,65.24c2.16,4.91,4.98,9.19,8.25,13.13,16.58,19.98,37.91,29.48,63.82,27.88,15.18-.94,28.52-7.08,40.41-16.45,5.94-4.68,11.05-10.12,15.16-16.48,2.82-4.37,6.73-6.76,12.04-6.61,8.19.23,14.1,8.37,11.82,16.28-.69,2.4-1.93,4.53-3.34,6.55-15.65,22.45-36.88,36.48-63.74,41.74-52.5,10.28-105.05-23.71-116.44-78.03-10.71-51.05,21.1-102.63,71.73-116.12,39.62-10.55,80.26,3.32,105.35,35.92,6.68,8.68,11.65,18.19,15.24,28.57,2.99,8.67.02,17.61-10.99,20.73-14.09,3.99-28.15,8.06-42.23,12.09-34.71,9.93-69.42,19.86-104.13,29.8-.94.27-1.85.63-2.97,1.01"/>
    </clipPath>
    <clipPath id="clippath-2">
      <path class="cls-12" d="m290.57,954.8c-1.26-.55-2.39-.33-3.49-.33-31.23-.01-62.45-.01-93.68,0-2.24,0-4.48.01-6.71.18-4.39.33-8.63,1.3-12.51,3.44-4.56,2.52-7.4,6.3-8.5,11.45-.82,3.84-.47,7.57.52,11.28,2.99,11.28,9.91,19.67,19.6,25.82,13.37,8.5,28.09,10.6,43.52,8.29,31.23-4.67,55.77-28.78,61.27-60.13m-21.24-65.15c-11.33-10.96-24.85-18-40.52-20.1-21.2-2.84-40.37,2.55-57.39,15.51-1.33,1.02-2.58,2.16-3.98,3.08-5.39,3.54-12.61,2.63-16.82-2.07-4.21-4.69-4.32-11.94-.25-16.95,1.49-1.83,3.29-3.36,5.14-4.82,20.88-16.5,44.69-24.01,71.13-21.64,32.57,2.91,58,18.45,75.96,45.81,12.27,18.7,17.41,39.44,15.58,61.65-1.65,20.07-8.3,37.49-19.68,52.28-3.15,4.1-6.67,8-10.54,11.69-3.04,2.9-6.31,5.68-9.79,8.34-12.21,9.31-25.91,15.48-41.14,17.86-21.56,3.37-42.48,1.71-61.91-9.1-16.92-9.42-28.9-23.13-34.48-41.93-3.11-10.47-3.28-21.01.58-31.33,5.43-14.53,16.29-23.16,30.9-27.42,6.93-2.02,14.06-2.6,21.26-2.6,31.13,0,62.27,0,93.4-.01,1.22,0,2.46.22,4.04-.38-3.68-14.77-10.7-27.44-21.49-37.87h0Zm0,0"/>
    </clipPath>
    <clipPath id="clippath-3">
      <path class="cls-12" d="m1069.88,856.86c8.06-6.09,16.82-10.39,26.54-12.73,37.33-9.01,74.46,15.13,81.41,52.97,1.32,7.17,1.92,14.42,1.93,21.7.05,35.04.07,70.08.06,105.12,0,7.44-4.05,12.44-10.81,13.66-6.83,1.23-13.41-3.22-14.82-10.03-.39-1.87-.44-3.77-.44-5.68.01-29.67.04-59.33,0-89-.01-8.95.05-17.91-.85-26.84-1.87-18.54-14.86-33.18-32.76-36.55-21.42-4.03-43.3,8.23-48.58,31.43-1.53,6.71-1.87,13.52-1.89,20.34-.09,33.7-.07,67.39-.09,101.09,0,2.24,0,4.47-.74,6.63-1.85,5.45-6.86,8.98-12.57,8.8-5.93-.18-10.82-4.03-12.25-9.68-.41-1.63-.59-3.29-.59-4.99.01-54.18.01-108.37,0-162.55,0-1.47.16-2.9.48-4.33,1.31-5.87,5.71-9.7,11.77-10.23,5.63-.49,10.8,2.8,12.96,8.21.33.82.26,1.8,1.25,2.63"/>
    </clipPath>
    <clipPath id="clippath-4">
      <path class="cls-12" d="m1386.81,845.01c23.64-.25,44.14,16.72,49.88,38.98.81,3.15,1.37,6.37.85,9.64-.88,5.54-4.96,9.63-10.35,10.5-5.57.89-10.88-1.76-13.49-6.74-1-1.91-1.35-4-1.75-6.09-2.24-11.64-11.99-19.89-24.18-20.52-11.35-.59-22.18,7.07-25.5,18.01-4.47,14.74,4.93,29.94,20.33,32.83,5.6,1.05,11.32,1.57,16.83,3.07,20.81,5.68,33.94,19.48,40.09,39.69,9.89,32.5-10.01,66.64-43.09,74.47-23.62,5.59-49.24-3.1-64.12-27.14-4.6-7.43-7.71-15.37-8.46-24.14-.17-2.01-.33-4,.07-6.02,1.29-6.51,6.38-10.81,12.73-10.67,6.46.15,11.59,4.85,12.41,11.47.3,2.44.47,4.9,1.11,7.29,3.91,14.5,16.77,24.07,31.75,24.98,22.58,1.37,42.91-24.28,30.53-48.97-4.94-9.86-12.77-15.55-23.67-17.17-5.31-.79-10.65-1.44-15.84-2.87-22.32-6.14-37.76-27.12-37.54-49.9.27-28.13,23.11-50.83,51.4-50.71"/>
    </clipPath>
    <clipPath id="clippath-5">
      <path class="cls-12" d="m746.63,991.13c1.65-4.24,3.32-8.48,4.96-12.73,15.55-40.36,31.1-80.72,46.66-121.08.44-1.15.88-2.3,1.42-3.4,2.8-5.71,7.87-8.37,14.04-7.41,5.76.89,9.61,5.2,10.69,11.35.37,2.11.04,3.84-.7,5.73-21.53,55.07-43.02,110.15-64.51,165.23-.69,1.77-1.37,3.55-2.46,5.13-5.61,8.15-17.5,7.67-22.37-.94-.88-1.55-1.49-3.25-2.14-4.91-21.5-54.96-42.99-109.92-64.48-164.89-2.83-7.24,2.62-15.88,10.58-16.76,6.68-.74,12.02,2.55,14.68,9.25,3.51,8.83,6.89,17.71,10.35,26.56,13.83,35.4,27.66,70.79,41.5,106.18.36.91.74,1.81,1.11,2.72.22,0,.45-.01.67-.02"/>
    </clipPath>
    <clipPath id="clippath-6">
      <path class="cls-12" d="m1242.33,954.25c0,24.06,0,48.12-.01,72.19,0,1.67.03,3.39-.3,5.01-1.26,6.2-6.48,10.4-12.69,10.38-6.42-.02-11.5-4.3-12.78-10.69-.38-1.89-.37-3.78-.37-5.68,0-48.24,0-96.47,0-144.71q0-4.11-4.04-4.11c-3.13,0-6.28.12-9.4-.05-8.99-.47-14.64-8.26-12.21-16.91,1.47-5.22,5.04-8.36,10.39-9.27,4.11-.69,8.27-.24,12.41-.31,3.07-.06,2.85.19,2.85-2.97,0-4.25.01-8.51,0-12.76,0-1.92.23-3.8.86-5.61,2.05-5.99,7.71-9.33,14.34-8.5,5.88.73,10.59,5.7,10.87,11.86.22,4.91.08,9.85.09,14.77,0,3.23-.39,3.21,3.34,3.21,17.35,0,34.7,0,52.05,0,1.34,0,2.69.01,4.02.17,7.36.85,12.03,6.3,11.82,13.76-.19,7.01-5.44,12.21-12.72,12.59-1.01.05-2.01.02-3.02.02-17.13,0-34.26,0-51.38,0-.78,0-1.57.05-2.35,0-1.28-.09-1.87.43-1.76,1.74.06.78,0,1.57,0,2.35,0,24.51,0,49.02,0,73.53"/>
    </clipPath>
    <clipPath id="clippath-7">
      <path class="cls-12" d="m367.19,913.69c0,36.49,0,72.98,0,109.47,0,2.24.01,4.46-.76,6.63-1.93,5.43-6.94,8.9-12.66,8.67-5.95-.23-10.79-4.08-12.22-9.73-.41-1.63-.58-3.29-.58-4.99.01-73.42.01-146.85,0-220.27,0-1.57.13-3.12.47-4.66,1.52-6.76,6.96-10.71,14.09-10.19,6.2.45,11.06,5.43,11.57,11.92.11,1.45.08,2.91.08,4.36,0,36.26,0,72.53,0,108.79"/>
    </clipPath>
    <clipPath id="clippath-8">
      <path class="cls-12" d="m433.69,913.65c0,36.49,0,72.98,0,109.47,0,2.12.04,4.23-.65,6.31-1.89,5.66-6.87,9.25-12.72,9.04-6.09-.21-10.94-4.16-12.33-10.01-.39-1.64-.52-3.3-.52-4.99,0-73.31,0-146.63,0-219.94,0-1.57.12-3.12.46-4.66,1.51-6.78,6.92-10.73,14.06-10.23,6.33.44,11.21,5.54,11.64,12.21.09,1.34.06,2.68.06,4.03,0,36.26,0,72.53,0,108.79"/>
    </clipPath>
    <clipPath id="clippath-9">
      <rect class="cls-13" y="5" width="1580" height="1043"/>
    </clipPath>
    <clipPath id="clippath-10">
      <path class="cls-5" d="m797.76,5c2.01,1.48,4.47.99,6.7,1.39,13.88,2.5,26.77,7.65,38.92,14.61,73.67,42.19,147.31,84.43,220.92,126.71,10.4,5.97,19.92,13.12,28.31,21.77,12.76,13.16,20.29,28.92,23.62,46.79,1.49,8,2.27,16.07,2.2,24.22-.04,5.14.03,10.28.05,15.42.23,77.95.45,155.89.68,233.84.04,12.64-.92,25.17-4.07,37.45-5.82,22.73-19.26,40.07-38.21,53.43-12.09,8.52-25.18,15.39-37.94,22.79-63.82,37.02-127.69,73.98-191.55,110.93-13.57,7.85-27.77,14.11-43.46,16.41-.43.06-.8.5-1.2.77h-22.9c-1.82-1.46-4.12-1.04-6.17-1.46-14.65-3.03-27.92-9.32-40.78-16.7-67.61-38.78-135.23-77.54-202.83-116.33-10.64-6.11-21.38-12.05-31-19.79-16.69-13.43-28.24-30.13-33.06-51.22-2.64-11.53-3.67-23.23-3.76-35.01-.17-23.55-.18-47.11-.3-70.66,0-1.78.51-3.67-.66-5.32v-176.16c1.02-7.2,1.8-14.44,3.1-21.59,3.01-16.64,9.78-31.51,21.11-44.26,9.26-10.43,20.35-18.46,32.3-25.38,72.11-41.78,144.25-83.51,216.39-125.24,13.14-7.6,26.95-13.45,42-16.09,1.89-.33,4.03.18,5.66-1.32h15.93Zm0,0"/>
    </clipPath>
    <clipPath id="clippath-11">
      <rect class="cls-8" x=".12" y="4.96" width="1579.92" height="1043.04"/>
    </clipPath>
    <clipPath id="clippath-12">
      <rect class="cls-13" y="5" width="1580" height="1043"/>
    </clipPath>
    <clipPath id="clippath-13">
      <path class="cls-2" d="m774.84,299.05c-1.01-1.72-1.6-2.71-2.18-3.71-9.64-16.49-21.57-31.04-36.63-42.87-35.61-27.97-75.91-38.19-120.52-31.07-25.08,4.01-47.39,14.58-67.41,30.09-3.41,2.64-6.8,5.32-9.37,8.86-3.89,5.36-4.11,11.18-1.55,16.97,2.63,5.95,7.54,8.93,14.08,9.48,6.23.53,10.61-2.79,15.14-6.32,29.55-22.99,62.87-31.98,99.53-23.89,40.08,8.85,67.5,33.75,83.97,71.03,2.62,5.93,4.6,12.08,5.92,18.43,1,4.82.77,5.01-4.18,5.06-.99,0-1.99,0-2.99,0-25.55,0-51.1,0-76.65,0-25.22.01-50.44.02-75.66.08-10.2.02-20.16,1.69-29.76,5.11-22.76,8.12-37.86,23.5-43.18,47.36-4.05,18.16-.91,35.67,7.18,52.21,13.68,28,36.08,46.17,65.11,56.55,17.92,6.41,36.51,7.98,55.39,7.1,14.66-.68,29.03-3.08,42.78-8.26,33.85-12.74,59.88-34.88,78.44-65.87.91-1.53,1.42-3.38,3.1-4.45,1.69,1.47,2.46,3.54,3.55,5.37,8.44,14.05,18.67,26.65,31.23,37.17,33.34,27.93,71.67,39.81,115.04,35.26,30.13-3.16,56.42-15.15,79.7-34.2,2.45-2.01,4.67-4.25,6.36-6.95,5.83-9.31.84-21.84-9.71-24.79-7.06-1.98-12.68.59-17.8,5.05-8.59,7.49-18.28,13.14-28.77,17.51-21.65,9.03-44.07,12.11-67.22,8.09-45.62-7.94-84.16-45.85-93.16-91.27q-1.35-6.83,5.81-6.83c77.15,0,154.3,0,231.45,0,2.16,0,4.31.02,6.47-.02,12.32-.27,20.1-8.22,20.03-20.53-.04-5.97-.63-11.9-1.58-17.8-5.1-31.73-18.5-59.59-41.1-82.3-36.65-36.82-81.34-51.48-132.64-43.35-40.17,6.37-72.13,27.13-96.51,59.64-4.16,5.55-7.61,11.56-11.72,18.06h0ZM797.76,5c2.01,1.48,4.47.99,6.7,1.39,13.88,2.5,26.77,7.65,38.92,14.61,73.67,42.19,147.31,84.43,220.92,126.71,10.4,5.97,19.92,13.12,28.31,21.77,12.76,13.16,20.29,28.92,23.62,46.79,1.49,8,2.27,16.07,2.2,24.22-.04,5.14.03,10.28.05,15.42.23,77.95.45,155.89.68,233.84.04,12.64-.92,25.17-4.07,37.45-5.82,22.73-19.26,40.07-38.21,53.43-12.09,8.52-25.18,15.39-37.94,22.79-63.82,37.02-127.69,73.98-191.55,110.93-13.57,7.85-27.77,14.11-43.46,16.41-.43.06-.8.5-1.2.77h-22.9c-1.82-1.46-4.12-1.04-6.17-1.46-14.65-3.03-27.92-9.32-40.78-16.7-67.61-38.78-135.23-77.54-202.83-116.33-10.64-6.11-21.38-12.05-31-19.79-16.69-13.43-28.24-30.13-33.06-51.22-2.64-11.53-3.67-23.23-3.76-35.01-.17-23.55-.18-47.11-.3-70.66,0-1.78.51-3.67-.66-5.32v-176.16c1.02-7.2,1.8-14.44,3.1-21.59,3.01-16.64,9.78-31.51,21.11-44.26,9.26-10.43,20.35-18.46,32.3-25.38,72.11-41.78,144.25-83.51,216.39-125.24,13.14-7.6,26.95-13.45,42-16.09,1.89-.33,4.03.18,5.66-1.32h15.93Zm110.49,346.04c-36.31,0-72.62,0-108.93,0-5.73,0-5.78-.02-4.53-5.66,9.78-43.95,45.27-81.35,93.18-89.8,55.44-9.77,109.57,20.95,129.28,73.64,2.21,5.91,3.84,11.98,5.02,18.17.66,3.46.58,3.54-3.11,3.65-.99.03-1.99,0-2.98,0h-107.93Zm-233.17,34.29c24.87,0,49.74,0,74.61,0,1.16,0,2.33.08,3.48-.01,2.44-.19,3.24.84,2.88,3.23-.89,5.92-2.25,11.74-4.26,17.34-15.17,42.2-44.47,68.63-88.52,77.87-21.08,4.42-41.89,2.83-61.8-6.05-14.9-6.64-27.17-16.47-35.76-30.5-5.54-9.05-9.07-18.81-8.85-29.59.26-12.82,6.17-22.08,17.9-27.45,8.16-3.73,16.88-4.76,25.7-4.8,24.87-.11,49.74-.04,74.61-.04h0Zm0,0"/>
    </clipPath>
    <clipPath id="clippath-14">
      <rect class="cls-6" x=".12" y="4.96" width="1579.92" height="1043.04"/>
    </clipPath>
  </defs>
  <g id="allevents">
    <g class="cls-14">
      <rect class="cls-18" x="825.48" y="837.25" width="209.58" height="209.56"/>
    </g>
    <g class="cls-15">
      <rect class="cls-18" x="457.17" y="837.33" width="205.49" height="209.45"/>
    </g>
    <g class="cls-3">
      <rect class="cls-18" x="133.31" y="837.23" width="190.22" height="209.63"/>
    </g>
    <g class="cls-10">
      <rect class="cls-18" x="1038.42" y="837.24" width="146.42" height="205.56"/>
    </g>
    <g class="cls-1">
      <rect class="cls-18" x="1318.68" y="840.01" width="128.39" height="205.49"/>
    </g>
    <g class="cls-9">
      <rect class="cls-18" x="661.99" y="841.31" width="167.57" height="203.46"/>
    </g>
    <g class="cls-4">
      <rect class="cls-18" x="1184.96" y="815.13" width="133.6" height="231.7"/>
    </g>
    <g class="cls-7">
      <rect class="cls-18" x="335.96" y="783.58" width="36.23" height="259.89"/>
    </g>
    <g class="cls-16">
      <rect class="cls-18" x="402.46" y="783.58" width="36.23" height="259.89"/>
    </g>
  </g>
  <g id="Logo">
    <g class="cls-11">
      <rect class="cls-18" x="456.28" width="667.89" height="736.53"/>
    </g>
    <g class="cls-17">
      <rect class="cls-19" x="456.28" width="667.89" height="736.53"/>
    </g>
  </g>
</svg>